<?xml version="1.0" encoding="UTF-8" standalone="no"?>
<!DOCTYPE svg PUBLIC "-//W3C//DTD SVG 1.1//EN" "http://www.w3.org/Graphics/SVG/1.1/DTD/svg11.dtd">
<svg version="1.1" xmlns="http://www.w3.org/2000/svg" xmlns:xlink="http://www.w3.org/1999/xlink" preserveAspectRatio="xMidYMid meet" viewBox="184.23904 109.0795837236204 457.93179255242757 63.37172294304625" width="453.93" height="59.37"><defs><path d="M190.17 165.68C192.02 165.59 193.13 165.43 193.48 165.19C193.71 165.01 193.89 164.79 194.01 164.53C194.45 163.44 194.77 160.49 194.98 155.67C195.24 149.42 195.67 141.09 196.25 130.69C196.72 122.76 196.96 117.81 196.96 115.84C196.96 115.73 196.96 114.81 196.96 114.69C194.84 114.25 191.5 113.78 186.91 113.28C186.62 112.84 186.47 112.51 186.47 112.27C186.47 112.12 186.58 111.86 186.78 111.48C187.28 111.3 187.66 111.21 187.93 111.21C188.16 111.21 188.68 111.27 189.47 111.39C190.91 111.6 192.89 111.7 195.42 111.7C196.24 111.7 197.65 111.64 199.65 111.52C201.06 111.43 201.85 111.39 202.03 111.39C202.5 111.39 203.04 111.46 203.66 111.61C203.95 111.9 204.17 112.18 204.32 112.45C204.44 112.72 205.06 114.1 206.17 116.59L218.64 144.17C221.73 151.13 223.45 154.99 223.79 155.76C227.88 147.68 231.05 140.5 233.31 134.21C233.46 133.74 233.63 133.32 233.84 132.94C234.1 132.44 234.35 131.88 234.59 131.26C234.82 130.65 235.78 128.3 237.45 124.21C238.13 122.57 238.67 121.16 239.08 119.98C240.76 115.28 241.74 112.59 242.04 111.92C242.59 111.71 243.08 111.61 243.49 111.61C243.96 111.61 244.56 111.64 245.3 111.7C246.94 111.79 249.61 111.83 253.32 111.83C255.61 111.83 257.49 111.8 258.96 111.74C259.01 112.07 259.04 112.3 259.04 112.45C259.04 112.65 259 112.93 258.91 113.28C257.97 113.78 256.84 114.06 255.52 114.12C252.9 114.27 251.24 114.47 250.54 114.74C249.83 115 249.38 115.34 249.17 115.75C249 116.16 248.84 117.51 248.69 119.81C248.69 119.94 248.71 120.62 248.73 121.83C248.71 123.1 248.69 123.81 248.69 123.95C248.69 128.35 248.81 135.76 249.04 146.16C249.04 146.73 249.02 149.61 249 154.79C249.02 158.12 249.04 159.97 249.04 160.34C249.04 162.52 249.14 163.81 249.35 164.22C249.56 164.6 250.14 164.97 251.11 165.32C252.7 165.85 255.28 166.39 258.87 166.95C259.07 167.1 259.18 167.29 259.18 167.53C259.18 167.79 259.16 168.08 259.13 168.41C258.93 168.41 257.31 168.41 257.11 168.41C255.37 168.41 253.49 168.35 251.47 168.23C249.44 168.14 248.35 168.1 248.2 168.1C242.18 168.1 238.19 168.16 236.22 168.27C235.02 168.36 234.25 168.41 233.93 168.41C233.72 168.41 233.5 168.35 233.27 168.23C233.27 168.17 233.27 167.72 233.27 167.66C233.27 167.39 233.31 167.11 233.4 166.82C234.37 166.41 235.69 166.13 237.37 165.98C239.22 165.48 240.57 164.96 241.42 164.4C241.68 163.28 241.82 161 241.82 157.57C241.8 156.68 241.7 149.56 241.68 148.67C241.68 147.7 241.73 145.89 241.82 143.25C241.93 140.6 241.99 136.3 241.99 130.34C241.99 125.61 241.87 122.02 241.64 119.59C241.14 120.61 240.16 122.85 238.69 126.28C238.64 126.39 238.42 126.95 238.03 127.96L237.94 128.22L231.42 143.64L229.08 149.59C227.26 153.93 226.24 156.34 226.04 156.82C224.72 160.14 223.59 163.08 222.65 165.63C222.24 166.81 221.9 167.73 221.63 168.41C221.53 168.4 220.72 168.37 220.62 168.36C217.3 158.67 213.34 148.73 208.72 138.53C204.14 128.34 200.93 121.61 199.07 118.35C198.84 119.62 198.58 123.29 198.28 129.37C197.9 136.77 197.71 144.92 197.71 153.82C197.71 156.61 197.91 159.76 198.33 163.25C198.44 164.25 198.87 165 199.6 165.5C200.34 165.97 202.23 166.23 205.29 166.29C206.46 166.29 207.58 166.38 208.64 166.56C208.84 167 208.94 167.32 208.94 167.53C208.94 167.67 208.87 167.92 208.72 168.27C207.35 168.23 196.39 167.84 195.02 167.79C194.02 167.79 192.47 167.86 190.35 168.01C189.18 168.1 187.49 168.16 185.28 168.19C185.28 168.11 185.27 167.71 185.24 167C186.94 166.29 188.59 165.85 190.17 165.68Z" id="br7WAXq6g"></path><path d="M294.42 144.75L276.75 144.88C274.74 144.88 273.62 144.88 273.4 144.88C272.05 144.88 270.67 144.94 269.26 145.05C268.99 145.94 268.86 146.54 268.86 146.86C268.87 146.89 268.88 147.04 268.91 147.3L268.91 147.74C268.88 149.04 268.87 149.76 268.86 149.9C268.86 151.69 269.42 153.9 270.54 156.51C271.68 159.1 273.3 161.08 275.38 162.46C277.5 163.81 280.13 164.53 283.27 164.62C284.95 164.53 286.28 164.32 287.28 164C288.28 163.68 289.69 162.93 291.51 161.75C291.72 161.58 292.78 160.71 294.68 159.15C294.84 160.21 294.93 160.8 294.95 160.92C294.95 161.12 294.93 161.34 294.9 161.58C293.58 163.25 291.91 164.72 289.88 165.98C287.85 167.25 285.8 168.17 283.71 168.76C282.71 169.02 281.07 169.16 278.78 169.16C276.69 169.16 274.63 168.73 272.61 167.88C269.61 166.59 267.25 164.51 265.51 161.67C263.81 158.79 262.96 155.31 262.96 151.22C262.96 149.93 263.19 148.27 263.66 146.24C264.16 144.22 265.04 142.06 266.31 139.77C267.16 138.21 268.2 136.93 269.44 135.93C271.2 134.52 272.74 133.54 274.06 132.98C275.97 132.19 278.19 131.79 280.72 131.79C283.45 131.79 285.68 132.29 287.41 133.29C289.76 134.61 291.51 136.31 292.66 138.4C293.83 140.49 294.42 142.4 294.42 144.13C294.42 144.17 294.42 144.38 294.42 144.75M271.9 143.16C273.4 143.16 277.87 142.92 285.3 142.45C286.47 142.4 287.19 142.28 287.46 142.1C287.99 141.54 288.25 141.04 288.25 140.6C288.25 139.69 287.96 138.66 287.37 137.52C286.78 136.34 285.87 135.45 284.64 134.83C283.43 134.19 282.02 133.86 280.41 133.86C277 133.86 274.27 135.14 272.21 137.7C270.63 139.63 269.83 141.46 269.83 143.16C270.25 143.16 271.7 143.16 271.9 143.16Z" id="e8e4y1ioNH"></path><path d="M305.38 162.24C306.49 163.91 307.83 165.22 309.39 166.16C310.94 167.07 312.63 167.53 314.45 167.53C316.13 167.53 317.79 166.81 319.43 165.37C320.61 164.28 321.19 163.02 321.19 161.58C321.19 159.67 320.5 157.91 319.12 156.29C317.74 154.7 315.11 153.19 311.24 151.75C307.39 150.28 304.8 148.73 303.48 147.08C302.16 145.44 301.5 143.56 301.5 141.44C301.5 139.44 302.04 137.68 303.13 136.15C304.22 134.63 305.71 133.48 307.62 132.72C309.53 131.92 311.3 131.53 312.91 131.53C315 131.53 316.86 131.69 318.51 132.01C320.18 132.33 321.62 132.83 322.83 133.51C323.06 135.01 323.25 137.21 323.4 140.12C323.41 140.26 323.48 141.39 323.49 141.53C323.1 141.56 322.78 141.57 322.52 141.57C322.46 141.57 321.96 141.57 321.9 141.57C321.02 139.13 319.67 137.21 317.85 135.8C316.05 134.36 314.28 133.64 312.51 133.64C310.75 133.64 309.33 134.19 308.24 135.27C307.15 136.33 306.61 137.72 306.61 139.46C306.61 140.78 307.05 141.95 307.93 142.98C308.81 144.01 310.87 145.19 314.1 146.51C317.36 147.83 319.73 149.06 321.19 150.21C322.69 151.33 323.79 152.69 324.5 154.31C325.2 155.92 325.56 157.46 325.56 158.93C325.56 160.96 324.88 162.86 323.53 164.62C322.21 166.38 320.53 167.61 318.51 168.32C316.51 169.05 314.72 169.42 313.13 169.42C309.4 169.42 305.96 168.73 302.82 167.35C302.53 167.11 302.37 166.67 302.34 166.03C302.34 165.76 302.31 165.34 302.25 164.75C301.78 160.78 301.54 158.43 301.54 157.7C301.54 157.35 301.62 157.11 301.76 156.99C301.91 156.88 302.29 156.82 302.91 156.82C304 159.61 304.82 161.42 305.38 162.24Z" id="c8yredg1f"></path><path d="M342.07 124.52L342.25 128.71C342.2 131.96 342.17 133.77 342.16 134.13C342.72 134.16 343.07 134.17 343.22 134.17C343.98 134.17 345.44 134.11 347.58 133.99C348.96 133.91 350.28 133.86 351.55 133.86C352.13 133.86 353.01 133.88 354.19 133.91C354.25 134.49 354.28 134.96 354.28 135.32C354.28 135.7 354.19 136.3 354.01 137.12C353.96 137.12 353.71 137.12 353.26 137.12L346.43 137.34L343.04 137.43C342.57 137.48 342.3 137.51 342.25 137.52C342.01 138.25 341.9 139.11 341.9 140.07C341.9 140.52 341.95 142.72 342.03 146.68C341.97 153.66 341.95 157.54 341.94 158.32C341.94 161.37 342.34 163.4 343.13 164.4C343.89 165.43 345.04 165.94 346.57 165.94C347.33 165.94 348.77 165.7 350.88 165.23C351.53 165.09 352.4 164.6 353.48 163.78C353.52 163.78 353.84 163.78 353.88 163.78C354.14 163.78 354.35 163.87 354.5 164.04C354.67 164.19 354.76 164.4 354.76 164.66C354.76 164.69 354.72 164.94 354.72 164.97C353.45 166.35 352 167.36 350.36 168.01C348.74 168.63 346.58 168.94 343.88 168.94C341.97 168.94 340.38 168.5 339.12 167.61C337.89 166.73 337.09 165.69 336.74 164.49C336.39 163.28 336.21 160.65 336.21 156.6C336.22 155.94 336.28 152.63 336.39 146.68L336.34 141.93C336.34 140.87 336.34 140.28 336.34 140.16C336.34 139.34 336.31 138.52 336.26 137.7C336.21 137.69 335.96 137.68 335.51 137.65L331.89 137.78C331.68 137.81 331.56 137.82 331.54 137.83C331.22 137.83 330.97 137.75 330.79 137.61C330.64 137.46 330.57 137.28 330.57 137.08C330.57 136.73 330.67 136.45 330.88 136.24C331.11 136.01 331.79 135.65 332.91 135.18C333.67 134.86 334.55 134.26 335.55 133.38C336.58 132.47 337.45 131.47 338.15 130.38C338.5 129.79 339 128.68 339.65 127.03C340.12 125.83 340.47 124.98 340.71 124.48C340.89 124.48 341.34 124.5 342.07 124.52Z" id="d43X2FUw3G"></path><path d="M358.5 166.07C360.35 165.81 361.46 165.5 361.81 165.15C362.19 164.79 362.38 163.99 362.38 162.72C362.39 162.56 362.46 161.3 362.47 161.14C362.5 160.55 362.51 159.8 362.51 158.89C362.5 157.54 362.43 146.72 362.43 145.36C362.43 143.54 362.19 142.37 361.72 141.84C360.93 141.01 359.46 140.44 357.31 140.12C357.31 139.96 357.31 138.69 357.31 138.53C359.46 137.95 361.1 137.18 362.25 136.24C363.92 134.92 365.33 133.13 366.48 130.87C366.63 130.87 367.83 130.91 367.98 130.91C368.07 132.29 368.11 133.27 368.11 133.86C368.11 134.06 368.11 135.03 368.11 136.77C368.14 137.25 368.15 137.51 368.15 137.56C368.51 137.33 368.92 137.03 369.39 136.68C371.15 135.36 372.96 134.29 374.81 133.47C376.66 132.61 378.3 132.03 379.74 131.7C380.65 131.47 381.68 131.35 382.83 131.35C385.23 131.35 387.31 132 389.04 133.29C390.77 134.58 391.89 136.11 392.39 137.87C392.92 139.6 393.18 143.07 393.18 148.27C393.18 148.94 393.18 154.26 393.18 154.92C393.18 155.1 393.15 155.69 393.09 156.69C393.06 157.69 393.05 158.83 393.05 160.12C393.05 162.18 393.14 163.49 393.31 164.04C393.46 164.43 393.84 164.81 394.46 165.19C397.28 165.57 398.92 166.03 399.39 166.56C399.39 166.59 399.39 166.87 399.39 166.91C399.39 167.2 399.31 167.57 399.13 168.01C399.07 168.01 398.79 168.01 398.29 168.01L392.48 167.97C389.04 168.02 387.13 168.05 386.75 168.05C384.63 168.11 382.68 168.1 380.89 168.01C380.86 167.92 380.65 167.18 380.62 167.09C380.62 166.91 380.73 166.67 380.93 166.38C381.72 166.03 382.84 165.79 384.28 165.68C385.13 165.62 385.72 165.53 386.04 165.41C386.37 165.29 386.76 165.06 387.23 164.71C387.58 164 387.76 163.41 387.76 162.94C387.76 162.74 387.73 162.33 387.67 161.71C387.58 160.36 387.53 156.99 387.5 151.62C387.5 151.47 387.5 150.7 387.5 149.33C387.55 147.21 387.58 146.04 387.58 145.8C387.58 142.01 386.82 139.4 385.29 137.96C383.77 136.52 381.72 135.8 379.17 135.8C377.2 135.8 375.28 136.24 373.4 137.12C371.52 137.97 369.7 139.27 367.93 141C367.87 142.41 367.84 143.61 367.84 144.61C367.86 145.59 367.96 153.38 367.98 154.35C367.98 159.43 368.05 162.55 368.2 163.69C368.26 164.16 368.36 164.49 368.51 164.66C368.74 164.9 369.21 165.09 369.92 165.23C370.62 165.38 371.43 165.59 372.34 165.85C373.28 166.12 373.9 166.28 374.19 166.34C374.78 166.48 375.17 166.78 375.38 167.22C375.38 167.28 375.36 167.57 375.34 168.1L370.71 168.1C365 168.02 361.83 167.98 361.19 167.97C358.99 168.03 357.59 168.05 357.01 168.05C356.93 168.05 356.56 168.05 355.9 168.05C355.85 167.71 355.82 167.52 355.82 167.48C355.82 167.28 355.86 166.98 355.95 166.6C356.68 166.39 357.53 166.22 358.5 166.07Z" id="b20uwXDykj"></path><path d="M405.65 113.86C405.65 112.89 406.02 112.05 406.75 111.35C407.52 110.64 408.43 110.29 409.48 110.29C410.57 110.29 411.53 110.69 412.35 111.48C413.17 112.27 413.58 113.12 413.58 114.03C413.58 114.94 413.17 115.81 412.35 116.63C411.53 117.43 410.57 117.82 409.48 117.82C408.4 117.82 407.49 117.46 406.75 116.72C406.02 115.99 405.65 115.03 405.65 113.86M401.99 135.4C403.9 134.85 404.93 134.52 405.08 134.43C406.14 133.96 407.24 133.25 408.38 132.28C409.56 131.31 410.54 130.22 411.33 129.02C411.69 128.96 411.97 128.93 412.17 128.93C412.22 128.93 412.65 128.97 412.7 128.97C412.82 130.38 412.88 131.41 412.88 132.06C412.88 132.2 412.85 132.86 412.79 134.04C412.79 134.19 412.79 134.97 412.79 136.37L412.83 149.06C412.75 157.13 412.71 161.61 412.7 162.5C412.67 163.59 412.85 164.35 413.23 164.79C413.61 165.21 414.74 165.68 416.62 166.2C417.8 166.53 418.68 166.81 419.27 167.04C419.35 167.25 419.4 167.42 419.4 167.57C419.4 167.75 419.32 167.97 419.18 168.23C418.03 168.2 416.56 168.13 414.77 168.01C412.33 167.8 410.72 167.7 409.92 167.7C409.54 167.7 407.19 167.78 402.87 167.92C401.99 167.95 401.14 168.03 400.32 168.14C400.17 168.14 399.94 168.1 399.61 168.01C399.47 167.8 399.39 167.63 399.39 167.48C399.39 167.07 399.67 166.75 400.23 166.51C400.35 166.45 401.85 166.12 404.73 165.5C405.67 165.32 406.28 165.03 406.58 164.62C407.08 164 407.32 163.02 407.32 161.67C407.38 159.4 407.41 153.21 407.41 143.07C407.41 141.04 407.32 139.78 407.15 139.28C407 138.93 406.61 138.53 405.96 138.09C405.34 137.62 404.01 137.15 401.95 136.68C401.96 136.43 401.99 135.53 401.99 135.4Z" id="f3oxdSryin"></path><path d="M421.5 166.59C424.34 166.36 426.38 166.02 427.61 165.58C428.43 165.29 429.03 164.86 429.42 164.31C429.59 164.04 429.96 162.74 430.51 160.39C430.69 159.1 431.51 155.22 432.98 148.74C433.18 147.36 433.48 145.61 433.86 143.5C433.97 142.95 434.27 141.1 434.74 137.96C434.8 137.46 435.13 135.65 435.75 132.51C435.82 132.13 436.15 130.24 436.76 126.84C436.87 125.81 436.92 125.23 436.94 125.12C438.23 119.08 438.87 115.25 438.87 113.64C438.87 113.47 438.78 113.22 438.61 112.89C438.17 112.6 437.42 112.41 436.36 112.32C436.13 112.29 435.75 112.25 435.22 112.19C435.07 112.19 434.34 112.17 433.02 112.15L432.01 112.23C431.59 112.26 431.35 112.28 431.31 112.28C431.01 112.28 430.56 112.21 429.94 112.06C429.97 111.71 430.15 111.06 430.47 110.12C430.97 110.12 432.7 110.21 435.66 110.39C438.65 110.53 441.19 110.61 443.27 110.61C445.38 110.61 447.81 110.49 450.57 110.26C451.6 110.14 452.36 110.08 452.86 110.08C455.73 110.08 458.34 110.58 460.68 111.57C460.86 111.63 461.11 111.74 461.43 111.88C461.74 112.06 464.2 113.47 464.51 113.64C466.18 114.96 467.28 115.96 467.81 116.63C468.78 117.81 469.58 119.23 470.23 120.9C470.9 122.57 471.24 124.23 471.24 125.87C471.24 126.98 471.14 127.92 470.93 128.68C470.83 129.07 469.98 132.17 469.88 132.55C469.44 133.61 468.81 134.74 467.98 135.94C467.6 136.53 466.93 137.23 465.96 138.05C465.58 138.37 465.23 138.7 464.91 139.02C463.26 140.31 461.31 141.45 459.06 142.45C457.88 142.98 456.57 143.33 455.1 143.5C452.26 143.86 450.64 144.03 450.26 144.03C449.85 144.03 449.07 143.94 447.93 143.77C445.91 143.47 444.53 143.21 443.8 142.98C443.8 142.95 443.8 142.74 443.8 142.71C443.8 142.54 443.87 142.17 444.02 141.61C444.84 141.7 446.27 141.79 448.33 141.88C448.74 141.82 449.43 141.76 450.39 141.7C452.45 141.32 453.98 140.84 455.01 140.25C457.12 139.08 458.88 137.76 460.29 136.29C461.7 134.83 462.81 133.02 463.63 130.88C464.22 129.3 464.51 127.35 464.51 125.03C464.51 123.24 464.06 121.47 463.15 119.71C462.24 117.92 461.21 116.5 460.07 115.45C458.95 114.39 457.56 113.57 455.89 112.98C454.22 112.37 451.87 112.06 448.85 112.06C447.8 112.06 446.73 112.19 445.64 112.45C445.26 113.51 444.95 114.84 444.72 116.46C444.6 117.22 444.47 117.98 444.32 118.74C444.06 120.22 442.72 127.63 440.32 140.95C438.9 147.68 438.11 151.42 437.95 152.17C437.68 154.07 437.46 155.42 437.29 156.21C437.14 156.98 436.99 157.86 436.85 158.85C436.7 159.85 436.54 160.64 436.36 161.23C436.04 162.34 435.88 163.22 435.88 163.87C435.88 164.34 436.11 164.76 436.58 165.14C437.08 165.49 438.15 165.74 439.79 165.89C441.44 166.04 442.58 166.27 443.22 166.59C443.2 167.06 443.18 167.41 443.18 167.65C443.18 168.06 443.14 168.37 443.05 168.57C442.29 168.57 440.54 168.44 437.82 168.18C436.95 168.16 430.06 168.06 429.2 168.04C426.5 168.04 423.65 168.21 420.66 168.53C420.66 168.41 420.66 167.82 420.66 166.77C421.03 166.65 421.3 166.59 421.5 166.59Z" id="a8hJeGrynY"></path><path d="M479.07 138.14C478.83 138.4 477.5 140.16 475.07 143.42C474.89 143.42 473.44 143.49 473.26 143.5C474 141.92 475.36 139.97 477.35 137.65C479.35 135.34 481.08 133.75 482.54 132.9C483.48 132.35 484.54 132.03 485.71 131.94C486.44 132.14 486.94 132.42 487.2 132.77C487.5 133.12 487.64 133.55 487.64 134.05C487.64 134.55 487.58 135.05 487.47 135.54C487.15 137.16 486.5 139.46 485.53 142.45C484.57 145.44 483.7 147.8 482.94 149.53C482.79 149.89 482.02 151.69 480.65 154.94C480.55 155.41 480.49 155.68 480.48 155.73C480.89 155.03 481.72 153.46 482.98 151.02C487.76 141.96 491.21 136.36 493.32 134.22C494.87 132.7 496.69 131.94 498.77 131.94C499.94 131.94 501.04 132.41 502.07 133.34C502.83 134.08 503.21 135.05 503.21 136.25C503.21 137.6 502.79 138.75 501.94 139.72C501.35 140.4 500.51 140.73 499.43 140.73C498.52 140.73 497.88 140.53 497.49 140.12C497.14 139.68 496.92 138.61 496.84 136.91C496.45 136.14 496.03 135.76 495.56 135.76C495.09 135.76 494.59 136.01 494.06 136.51C492.66 137.77 490 141.82 486.1 148.65C482.2 155.45 479.76 160.19 478.76 162.85C477.79 165.49 477 167.31 476.38 168.31C476.06 168.81 475.46 169.06 474.58 169.06C473.79 169.06 473.22 168.91 472.87 168.62C472.54 168.35 472.38 168 472.38 167.56C472.38 166.97 472.53 166.3 472.82 165.54C474.08 162.46 476.11 156.79 478.89 148.52C479.2 147.58 481.66 140.05 481.97 139.11C482.18 138.26 482.32 137.71 482.41 137.48C482.44 137.41 482.65 136.88 482.67 136.82C482.67 136.53 482.38 136.14 481.79 135.68C480.83 136.38 479.92 137.2 479.07 138.14Z" id="a2sFYN05"></path><path d="M528.16 143.02C528.16 149.82 526.1 155.86 521.96 161.14C517.86 166.42 513.59 169.06 509.17 169.06C506.79 169.06 504.87 168.18 503.4 166.42C501.94 164.63 501.2 161.84 501.2 158.06C501.2 155.51 501.78 152.58 502.92 149.26C504.06 145.92 505.54 143.15 507.36 140.95C507.77 140.45 508.24 139.85 508.77 139.15C510.32 137.13 512.17 135.43 514.31 134.05C516.45 132.67 518.64 131.98 520.86 131.98C522.92 131.98 524.65 132.85 526.05 134.58C527.46 136.28 528.16 139.09 528.16 143.02M506.22 166.02C506.86 166.67 507.89 166.99 509.3 166.99C510.68 166.99 512.07 166.31 513.48 164.97C516 162.5 518.52 158.27 521.04 152.26C523.56 146.25 524.82 141.51 524.82 138.05C524.82 136.82 524.51 135.85 523.9 135.15C523.28 134.41 522.58 134.05 521.79 134.05C520.06 134.05 518.25 135.06 516.38 137.08C513.18 140.48 510.43 145.17 508.11 151.16C506.23 156.02 505.3 159.98 505.3 163.03C505.3 164.38 505.6 165.38 506.22 166.02Z" id="j6FYIrCFXp"></path><path d="M544.27 136.25C543.75 136.25 542.93 136.67 541.81 137.52C539.79 139.05 538.04 140.75 536.58 142.62C536.28 143.01 535.99 143.36 535.7 143.68C535.14 143.62 534.58 143.55 534.03 143.46C534.94 141.96 535.85 140.75 536.75 139.81C538.87 137.64 540.33 136.25 541.15 135.63C542.79 134.37 544.33 133.43 545.77 132.82C546.5 132.49 547.24 132.33 547.97 132.33C548.61 132.33 549.14 132.52 549.55 132.9C549.99 133.29 550.21 133.7 550.21 134.14C550.21 135.16 548.5 139.03 545.07 145.75C544.1 147.68 543.47 149 543.17 149.7C544.79 148 546.85 145.67 549.38 142.71C551.16 140.6 553.57 138.2 556.59 135.5C557.76 134.47 559.1 133.68 560.59 133.12C562.09 132.57 563.32 132.29 564.28 132.29C565.08 132.29 565.77 132.55 566.35 133.08C566.73 133.43 566.92 133.95 566.92 134.62C566.92 137.14 565.24 141.52 561.87 147.77C561.73 148.03 561.06 149.32 559.84 151.64L559.58 152.34C562.27 149.15 563.77 147.38 564.07 147.02C565.44 145.5 566.38 144.47 566.88 143.94C567.82 143.03 568.49 142.33 568.9 141.83C571.39 138.84 573.96 136.54 576.6 134.93C579.27 133.32 581.36 132.51 582.89 132.51C583.53 132.51 584.1 132.77 584.6 133.3C585.1 133.8 585.35 134.49 585.35 135.37C585.35 135.95 585.29 136.51 585.17 137.04C584.94 138.01 584.47 139.31 583.77 140.95C583.71 141.1 582.43 143.45 579.94 147.99C578.5 150.6 577.41 152.53 576.64 153.79C576.42 154.14 574.66 156.92 574.44 157.27C573.36 159.15 572.54 160.36 571.98 160.92C570.28 162.62 569.43 164 569.43 165.05C569.43 165.2 569.53 165.35 569.74 165.49C569.88 165.49 570.43 165.2 571.37 164.61C573.27 163.44 575.62 161.58 578.4 159.03C578.54 159.06 579.63 159.34 579.77 159.38C578.36 161.75 576.06 164 572.86 166.11C569.69 168.19 566.84 169.23 564.28 169.23C563.67 169.23 563.14 169 562.7 168.53C562.7 168.15 562.76 167.84 562.88 167.6C562.99 167.34 563.46 166.53 564.28 165.19C565.01 164 570.86 154.54 571.59 153.35C575.51 146.99 577.86 142.95 578.62 141.22C579.74 138.67 580.29 137.17 580.29 136.73C580.29 136.41 580.19 136.14 579.99 135.94C579.78 135.7 579.53 135.59 579.24 135.59C578.83 135.59 578.3 135.76 577.65 136.12C575.95 137.05 573.97 138.71 571.72 141.08C567.26 145.83 563.86 149.6 561.51 152.39C557.79 156.87 554.61 161.52 551.97 166.33C551.36 167.47 550.67 168.4 549.9 169.1C549.26 169.19 548.63 169.23 548.01 169.23C547.07 169.23 546.3 169.14 545.68 168.97C545.77 168.44 546.18 167.57 546.91 166.37C548.32 164.12 550.58 160.14 553.69 154.45C556.79 148.77 558.83 144.91 559.8 142.89C560.77 140.84 561.38 139.33 561.65 138.36C561.73 138.04 561.78 137.7 561.78 137.35C561.78 136.85 561.63 136.42 561.34 136.07C561.16 135.81 560.94 135.68 560.68 135.68C560.21 135.68 559.52 135.94 558.61 136.47C557.26 137.17 555.37 138.83 552.94 141.44C548.72 145.92 546.34 148.5 545.81 149.18C542.21 153.81 539.52 157.55 537.77 160.39C537.68 160.57 537.11 161.55 536.05 163.34C535.02 165.1 534.34 166.31 533.98 166.99C533.54 167.69 532.97 168.35 532.27 168.97C531.51 169.06 530.86 169.1 530.33 169.1C529.95 169.1 529.57 169.04 529.19 168.92C529.17 168.86 529.03 168.33 529.01 168.26C529.01 167.82 529.23 167.24 529.67 166.5C529.85 166.21 532.25 161.61 536.89 152.7C537.67 151.16 543.93 138.88 544.71 137.35C544.8 137.14 544.86 136.83 544.89 136.42C544.77 136.39 544.34 136.26 544.27 136.25Z" id="cYa1LBpn3"></path><path d="M593.3 152.12C592.33 154.79 591.85 157.49 591.85 160.22C591.85 162.21 592.32 163.81 593.26 165.01C593.87 165.83 594.71 166.24 595.76 166.24C596.41 166.24 596.98 166.11 597.48 165.85C598.56 165.29 599.49 164.63 600.25 163.87C601.04 163.1 601.86 162.11 602.71 160.88C603.56 159.64 604.25 158.27 604.78 156.74C604.84 156.74 605.33 156.74 605.39 156.74C605.75 156.74 606.14 156.77 606.58 156.83C605.7 160.11 603.53 163.34 600.07 166.5C597.9 168.47 595.66 169.45 593.34 169.45C591.79 169.45 590.47 168.75 589.39 167.34C587.95 165.49 587.23 162.94 587.23 159.69C587.23 158.28 587.44 156.59 587.85 154.63C588.29 152.67 588.79 151.02 589.34 149.7C590.22 147.65 591.2 145.72 592.29 143.9C592.63 143.41 595.34 139.47 595.68 138.97C597.87 136.63 599.11 135.34 599.37 135.1C600.4 134.22 601.42 133.56 602.45 133.12C603.5 132.66 604.59 132.42 605.7 132.42C607.14 132.42 608.4 133.02 609.48 134.22C610.57 135.43 611.11 136.94 611.11 138.75C611.11 140.37 610.69 141.96 609.84 143.55C609.02 145.1 608.12 146.25 607.15 146.98C606.79 147.22 603.87 149.12 603.5 149.35C603.09 149.56 601.99 149.94 600.21 150.5C598.42 151.02 596.12 151.57 593.3 152.12M598.45 148.83C599.53 148.41 600.97 147.61 602.76 146.41C603.46 145.94 604.27 145.15 605.18 144.03C606.08 142.89 606.77 141.72 607.24 140.51C607.71 139.28 607.95 138.02 607.95 136.73C607.95 135.88 607.7 135.18 607.2 134.62C606.7 134.06 606.14 133.78 605.53 133.78C604.74 133.78 603.8 134.24 602.71 135.15C600.89 136.73 598.99 139.38 596.99 143.11C595.5 145.95 594.52 148.22 594.05 149.92C594.99 149.95 596.45 149.59 598.45 148.83Z" id="a43T3Of4vK"></path><path d="M622.59 136.03L621.36 135.98L618.5 136.07C618.16 136.07 617.97 136.07 617.93 136.07C617.99 135.43 618.24 134.68 618.68 133.83C622.9 133.71 625.41 133.61 626.2 133.52C626.78 132.11 627.28 130.98 627.69 130.13C628.57 128.23 629.48 125.97 630.42 123.36C630.71 122.51 631.03 121.73 631.39 121.03C632.03 120.94 632.78 120.9 633.63 120.9C634.33 120.9 635.01 120.97 635.65 121.12C635.66 121.19 635.73 121.75 635.74 121.82C635.74 122.38 634.42 125.6 631.78 131.5C631.49 132.17 631.24 132.86 631.03 133.56C631.88 133.71 632.38 133.78 632.53 133.78C632.59 133.78 632.9 133.78 633.45 133.78L634.95 133.83C637.48 133.78 638.89 133.75 639.17 133.74C639.17 134.71 638.99 135.5 638.64 136.12C637.47 136.23 635.93 136.29 634.03 136.29C633.09 136.29 632.49 136.31 632.22 136.34C630.73 136.48 629.86 136.63 629.63 136.77C628.9 138.48 623.06 152.13 622.33 153.84C621.56 155.51 620.22 158.69 618.28 163.38C618.28 163.56 618.37 163.76 618.54 164C618.6 164.01 619.06 164.08 619.12 164.09C619.91 164.09 620.89 163.59 622.06 162.59C624.67 160.39 627.14 157.83 629.45 154.89C629.95 155.16 630.39 155.47 630.77 155.82C627.81 159.37 625.73 161.71 624.53 162.85C623.32 163.97 621.8 165.14 619.95 166.37C618.1 167.57 616.99 168.25 616.61 168.4C615.94 168.66 615.25 168.79 614.54 168.79C613.81 168.79 613.27 168.63 612.92 168.31C612.56 168.01 612.39 167.57 612.39 166.99C612.39 166.14 613.11 164.16 614.54 161.05C614.67 160.78 615.3 159.42 616.43 156.96C620.42 147.59 622.63 142.39 623.07 141.35C623.92 139.33 624.61 137.55 625.14 136.03C624.8 136.03 623.95 136.03 622.59 136.03Z" id="bl1baCeL3"></path><path d="" id="b2qSzxW2Z4"></path></defs><g><g><use xlink:href="#br7WAXq6g" opacity="1" fill="#767171" fill-opacity="1"></use><g><use xlink:href="#br7WAXq6g" opacity="1" fill-opacity="0" stroke="#000000" stroke-width="1" stroke-opacity="0"></use></g></g><g><use xlink:href="#e8e4y1ioNH" opacity="1" fill="#767171" fill-opacity="1"></use><g><use xlink:href="#e8e4y1ioNH" opacity="1" fill-opacity="0" stroke="#000000" stroke-width="1" stroke-opacity="0"></use></g></g><g><use xlink:href="#c8yredg1f" opacity="1" fill="#767171" fill-opacity="1"></use><g><use xlink:href="#c8yredg1f" opacity="1" fill-opacity="0" stroke="#000000" stroke-width="1" stroke-opacity="0"></use></g></g><g><use xlink:href="#d43X2FUw3G" opacity="1" fill="#767171" fill-opacity="1"></use><g><use xlink:href="#d43X2FUw3G" opacity="1" fill-opacity="0" stroke="#000000" stroke-width="1" stroke-opacity="0"></use></g></g><g><use xlink:href="#b20uwXDykj" opacity="1" fill="#767171" fill-opacity="1"></use><g><use xlink:href="#b20uwXDykj" opacity="1" fill-opacity="0" stroke="#000000" stroke-width="1" stroke-opacity="0"></use></g></g><g><use xlink:href="#f3oxdSryin" opacity="1" fill="#767171" fill-opacity="1"></use><g><use xlink:href="#f3oxdSryin" opacity="1" fill-opacity="0" stroke="#000000" stroke-width="1" stroke-opacity="0"></use></g></g><g><use xlink:href="#a8hJeGrynY" opacity="1" fill="#1e7b4b" fill-opacity="1"></use><g><use xlink:href="#a8hJeGrynY" opacity="1" fill-opacity="0" stroke="#000000" stroke-width="1" stroke-opacity="0"></use></g></g><g><use xlink:href="#a2sFYN05" opacity="1" fill="#1e7b4b" fill-opacity="1"></use><g><use xlink:href="#a2sFYN05" opacity="1" fill-opacity="0" stroke="#000000" stroke-width="1" stroke-opacity="0"></use></g></g><g><use xlink:href="#j6FYIrCFXp" opacity="1" fill="#1e7b4b" fill-opacity="1"></use><g><use xlink:href="#j6FYIrCFXp" opacity="1" fill-opacity="0" stroke="#000000" stroke-width="1" stroke-opacity="0"></use></g></g><g><use xlink:href="#cYa1LBpn3" opacity="1" fill="#1e7b4b" fill-opacity="1"></use><g><use xlink:href="#cYa1LBpn3" opacity="1" fill-opacity="0" stroke="#000000" stroke-width="1" stroke-opacity="0"></use></g></g><g><use xlink:href="#a43T3Of4vK" opacity="1" fill="#1e7b4b" fill-opacity="1"></use><g><use xlink:href="#a43T3Of4vK" opacity="1" fill-opacity="0" stroke="#000000" stroke-width="1" stroke-opacity="0"></use></g></g><g><use xlink:href="#bl1baCeL3" opacity="1" fill="#1e7b4b" fill-opacity="1"></use><g><use xlink:href="#bl1baCeL3" opacity="1" fill-opacity="0" stroke="#000000" stroke-width="1" stroke-opacity="0"></use></g></g><g><use xlink:href="#b2qSzxW2Z4" opacity="1" fill="#000000" fill-opacity="1"></use><g><use xlink:href="#b2qSzxW2Z4" opacity="1" fill-opacity="0" stroke="#000000" stroke-width="1" stroke-opacity="0"></use></g></g></g></svg>